<?xml version="1.0" standalone="no"?><!DOCTYPE svg PUBLIC "-//W3C//DTD SVG 1.1//EN" "http://www.w3.org/Graphics/SVG/1.1/DTD/svg11.dtd"><svg t="1626248415955" class="icon" viewBox="0 0 1024 1024" version="1.1" xmlns="http://www.w3.org/2000/svg" p-id="2415" width="200" height="200" data-spm-anchor-id="a313x.7781069.0.i4" xmlns:xlink="http://www.w3.org/1999/xlink"><defs><style type="text/css"></style></defs><path d="M640 149.3504a42.6496 42.6496 0 0 1 3.1744 85.1968l-3.1744 0.1024h-64c-22.528 0-40.96 17.408-42.5472 39.4752l-0.1024 3.2256v192H640a42.6496 42.6496 0 0 1 3.1744 85.1968l-3.1744 0.1024h-106.6496v277.3504a42.6496 42.6496 0 0 1-85.248 3.1744l-0.1024-3.1744V277.3504a128 128 0 0 1 123.1872-127.9488l4.8128-0.0512h64z m277.3504 0a42.6496 42.6496 0 0 1 3.1744 85.1968l-3.1744 0.1024h-64c-22.528 0-40.96 17.408-42.5472 39.4752l-0.1536 3.2256v192h106.7008a42.6496 42.6496 0 0 1 3.1744 85.1968l-3.1744 0.1024h-106.7008v277.3504a42.6496 42.6496 0 0 1-85.1968 3.1744l-0.1024-3.1744V277.3504a128 128 0 0 1 123.1872-127.9488l4.8128-0.0512h64zM256 149.3504a128 128 0 0 1 128 128v469.2992a128 128 0 0 1-128 128h-42.6496a128 128 0 0 1-128-128V277.3504a128 128 0 0 1 128-128z m0 85.2992h-42.6496a42.6496 42.6496 0 0 0-42.7008 42.7008v469.2992c0 23.552 19.0976 42.7008 42.7008 42.7008H256c23.552 0 42.6496-19.0976 42.6496-42.7008V277.3504A42.6496 42.6496 0 0 0 256 234.6496z" p-id="2416" fill="#ffffff" data-spm-anchor-id="a313x.7781069.0.i2" class=""></path></svg>