<?xml version="1.0" standalone="no"?><!DOCTYPE svg PUBLIC "-//W3C//DTD SVG 1.1//EN" "http://www.w3.org/Graphics/SVG/1.1/DTD/svg11.dtd"><svg t="1624783815753" class="icon" viewBox="0 0 1024 1024" version="1.1" xmlns="http://www.w3.org/2000/svg" p-id="3076" xmlns:xlink="http://www.w3.org/1999/xlink" width="200" height="200"><defs><style type="text/css"></style></defs><path d="M341.333333 853.333333v82.432a21.333333 21.333333 0 0 1-34.986666 16.426667l-175.786667-146.474667A21.333333 21.333333 0 0 1 144.298667 768H768a85.333333 85.333333 0 0 0 85.333333-85.333333V341.333333h85.333334v341.333334a170.666667 170.666667 0 0 1-170.666667 170.666666H341.333333z m341.333334-765.098666a21.333333 21.333333 0 0 1 34.986666-16.426667l175.786667 146.474667a21.333333 21.333333 0 0 1-13.696 37.717333H256a85.333333 85.333333 0 0 0-85.333333 85.333333v341.333334H85.333333V341.333333a170.666667 170.666667 0 0 1 170.666667-170.666666h426.666667V88.234667zM469.333333 341.333333h85.333334v341.333334h-85.333334v-256H384V384l85.333333-42.666667z" p-id="3077"></path></svg>