<?xml version="1.0" standalone="no"?><!DOCTYPE svg PUBLIC "-//W3C//DTD SVG 1.1//EN" "http://www.w3.org/Graphics/SVG/1.1/DTD/svg11.dtd"><svg t="1624783822547" class="icon" viewBox="0 0 1024 1024" version="1.1" xmlns="http://www.w3.org/2000/svg" p-id="3213" xmlns:xlink="http://www.w3.org/1999/xlink" width="200" height="200"><defs><style type="text/css"></style></defs><path d="M768 763.008V682.666667l213.333333 128-213.333333 128v-89.173334a384 384 0 0 1-298.538667-228.906666L469.333333 620.373333l-0.128 0.256A384 384 0 0 1 116.266667 853.333333H85.333333v-85.333333h30.933334a298.666667 298.666667 0 0 0 274.517333-181.034667L422.912 512l-32.128-74.965333A298.666667 298.666667 0 0 0 116.266667 256H85.333333V170.666667h30.933334a384 384 0 0 1 352.938666 232.746666L469.333333 403.626667l0.128-0.256A384 384 0 0 1 768 174.506667V85.333333l213.333333 128-213.333333 128V260.992a298.666667 298.666667 0 0 0-220.117333 176.042667L515.754667 512l32.128 74.965333A298.666667 298.666667 0 0 0 768 763.008z" p-id="3214"></path></svg>